<svg width="84" height="77" viewBox="0 0 84 77" fill="none" xmlns="http://www.w3.org/2000/svg">
<path d="M13.6699 12.6877V19.0314H7.32617L7.32617 44.4062H13.6699V50.7414H7.32617L7.32617 57.0851H20.0136V63.4288H32.701V69.7725H51.7321V63.4288H58.0673V69.7725H64.411V63.4288H58.0673V57.0851H51.7321V50.7414L58.0673 50.75V57.0851H70.7547V50.75H58.0673V44.4062H51.7321V38.0626H45.3884V31.7188H39.0447V44.4062H32.701V50.7414H26.3659L26.3573 44.4062H32.701V31.7188H39.0447V25.3751H32.701V19.0314H39.0447V25.3751H45.3884V31.7188H58.0673V44.4062H70.7547V31.7188H58.0673V12.6877L51.7321 12.6877V6.34399L20.0136 6.34399V12.6877H13.6699Z" fill="white"/>
<path d="M77.0982 12.6873H64.4108V25.3747H77.0982V12.6873Z" fill="white"/>
<path d="M20.0135 6.34399H13.6698V12.6877H20.0135V6.34399Z" fill="#000201"/>
<path d="M13.6699 12.6873H7.32617V19.031H13.6699V12.6873Z" fill="#000201"/>
<path d="M7.32601 12.6873H0.9823L0.9823 19.031H7.32601V12.6873Z" fill="#000201"/>
<path d="M7.32601 19.031H0.9823L0.9823 25.3747H7.32601V19.031Z" fill="#000201"/>
<path d="M7.32601 25.375H0.9823L0.9823 31.7187H7.32601V25.375Z" fill="#000201"/>
<path d="M7.32601 31.719H0.9823L0.9823 38.0627H7.32601V31.719Z" fill="#000201"/>
<path d="M7.32601 38.0623H0.9823L0.9823 44.406H7.32601V38.0623Z" fill="#000201"/>
<path d="M13.6699 44.406H7.32617V50.7497H13.6699V44.406Z" fill="#000201"/>
<path d="M7.32601 50.7407H0.9823L0.9823 57.0844H7.32601V50.7407Z" fill="#000201"/>
<path d="M7.32601 57.0847H0.9823L0.9823 63.4284H7.32601V57.0847Z" fill="#000201"/>
<path d="M13.6699 57.0847H7.32617V63.4284H13.6699V57.0847Z" fill="#000201"/>
<path d="M20.0135 57.0847H13.6698V63.4284H20.0135V57.0847Z" fill="#000201"/>
<path d="M26.3571 63.4285H20.0134V69.7722H26.3571V63.4285Z" fill="#000201"/>
<path d="M32.701 63.4285H26.3573V69.7722H32.701V63.4285Z" fill="#000201"/>
<path d="M39.0446 69.7717H32.7009V76.1154H39.0446V69.7717Z" fill="#000201"/>
<path d="M45.3882 69.7717H39.0445V76.1154H45.3882V69.7717Z" fill="#000201"/>
<path d="M51.7318 69.7717H45.3881V76.1154H51.7318V69.7717Z" fill="#000201"/>
<path d="M58.0757 69.7717H51.732V76.1154H58.0757V69.7717Z" fill="#000201"/>
<path d="M64.4109 69.7717H58.0672V76.1154H64.4109V69.7717Z" fill="#000201"/>
<path d="M70.7545 63.4285H64.4108V69.7722H70.7545V63.4285Z" fill="#000201"/>
<path d="M70.7545 57.0847H64.4108V63.4284H70.7545V57.0847Z" fill="#000201"/>
<path d="M77.0981 50.75H70.7544V57.0937H77.0981V50.75Z" fill="#000201"/>
<path d="M77.0981 44.406H70.7544V50.7497H77.0981V44.406Z" fill="#000201"/>
<path d="M70.7545 44.406H64.4108V50.7497H70.7545V44.406Z" fill="#000201"/>
<path d="M64.4109 44.406H58.0672V50.7497H64.4109V44.406Z" fill="#000201"/>
<path d="M64.4109 57.0847H58.0672V63.4284H64.4109V57.0847Z" fill="#000201"/>
<path d="M26.3571 0L20.0134 0V6.34371H26.3571V0Z" fill="#000201"/>
<path d="M32.701 0L26.3573 0V6.34371H32.701V0Z" fill="#000201"/>
<path d="M39.0446 0L32.7009 0V6.34371H39.0446V0Z" fill="#000201"/>
<path d="M45.3882 0L39.0445 0V6.34371H45.3882V0Z" fill="#000201"/>
<path d="M51.7318 0L45.3881 0V6.34371H51.7318V0Z" fill="#000201"/>
<path d="M58.0757 6.34399H51.732V12.6877H58.0757V6.34399Z" fill="#000201"/>
<path d="M64.4109 12.6873H58.0672V19.031H64.4109V12.6873Z" fill="#000201"/>
<path d="M64.4109 19.031H58.0672V25.3747H64.4109V19.031Z" fill="#000201"/>
<path d="M58.0757 31.719H51.732V38.0627H58.0757V31.719Z" fill="#000201"/>
<path d="M64.4109 25.375H58.0672V31.7187H64.4109V25.375Z" fill="#000201"/>
<path d="M58.0757 38.0623H51.732V44.406H58.0757V38.0623Z" fill="#000201"/>
<path d="M58.0757 50.7407H51.732V57.0844H58.0757V50.7407Z" fill="#000201"/>
<path d="M58.0757 63.4285H51.732V69.7722H58.0757V63.4285Z" fill="#000201"/>
<path d="M51.7318 31.719H45.3881V38.0627H51.7318V31.719Z" fill="#000201"/>
<path d="M45.3882 25.375H39.0445V31.7187H45.3882V25.375Z" fill="#000201"/>
<path d="M39.0446 31.719H32.7009V38.0627H39.0446V31.719Z" fill="#000201"/>
<path d="M39.0446 38.0623H32.7009V44.406H39.0446V38.0623Z" fill="#000201"/>
<path d="M32.701 44.406H26.3573V50.7497H32.701V44.406Z" fill="#000201"/>
<path d="M39.0446 19.031H32.7009V25.3747H39.0446V19.031Z" fill="#000201"/>
<path d="M64.4109 6.34399H58.0672V12.6877H64.4109V6.34399Z" fill="#000201"/>
<path d="M70.7545 6.34399H64.4108V12.6877H70.7545V6.34399Z" fill="#000201"/>
<path d="M77.0981 6.34399H70.7544V12.6877H77.0981V6.34399Z" fill="#000201"/>
<path d="M83.442 12.6873H77.0983V19.031H83.442V12.6873Z" fill="#000201"/>
<path d="M83.442 19.031H77.0983V25.3747H83.442V19.031Z" fill="#000201"/>
<path d="M77.0981 25.375H70.7544V31.7187H77.0981V25.375Z" fill="#000201"/>
<path d="M77.0981 31.719H70.7544V38.0627H77.0981V31.719Z" fill="#000201"/>
<path d="M77.0981 38.0623H70.7544V44.406H77.0981V38.0623Z" fill="#000201"/>
<path d="M70.7545 25.375H64.4108V31.7187H70.7545V25.375Z" fill="#000201"/>
</svg>
